<?xml version="1.0" encoding="UTF-8" standalone="no"?>
<!-- Created with Inkscape (http://www.inkscape.org/) -->

<svg
   xmlns:dc="http://purl.org/dc/elements/1.1/"
   xmlns:cc="http://creativecommons.org/ns#"
   xmlns:rdf="http://www.w3.org/1999/02/22-rdf-syntax-ns#"
   xmlns:svg="http://www.w3.org/2000/svg"
   xmlns="http://www.w3.org/2000/svg"
   xmlns:xlink="http://www.w3.org/1999/xlink"
   xmlns:sodipodi="http://sodipodi.sourceforge.net/DTD/sodipodi-0.dtd"
   xmlns:inkscape="http://www.inkscape.org/namespaces/inkscape"
   id="svg2"
   version="1.1"
   inkscape:version="0.91 r13725"
   width="128"
   height="128"
   viewBox="0 0 128 128"
   sodipodi:docname="adblock128.svg"
   inkscape:export-filename="/home/nathanel/Downloads/adblock/img/icon16.png"
   inkscape:export-xdpi="11.25"
   inkscape:export-ydpi="11.25">
  <metadata
     id="metadata8">
    <rdf:RDF>
      <cc:Work
         rdf:about="">
        <dc:format>image/svg+xml</dc:format>
        <dc:type
           rdf:resource="http://purl.org/dc/dcmitype/StillImage" />
        <dc:title></dc:title>
      </cc:Work>
    </rdf:RDF>
  </metadata>
  <defs
     id="defs6">
    <linearGradient
       inkscape:collect="always"
       id="linearGradient4272">
      <stop
         style="stop-color:#ff0000;stop-opacity:1"
         offset="0"
         id="stop4274" />
      <stop
         style="stop-color:#c40000;stop-opacity:1"
         offset="1"
         id="stop4276" />
    </linearGradient>
    <linearGradient
       inkscape:collect="always"
       xlink:href="#linearGradient4272"
       id="linearGradient4278"
       x1="-52"
       y1="-49.254833"
       x2="12"
       y2="105.25484"
       gradientUnits="userSpaceOnUse" />
  </defs>
  <sodipodi:namedview
     pagecolor="#ffffff"
     bordercolor="#666666"
     borderopacity="1"
     objecttolerance="10"
     gridtolerance="10"
     guidetolerance="10"
     inkscape:pageopacity="0"
     inkscape:pageshadow="2"
     inkscape:window-width="1079"
     inkscape:window-height="1404"
     id="namedview4"
     showgrid="true"
     inkscape:snap-grids="true"
     inkscape:object-paths="true"
     inkscape:snap-intersection-paths="true"
     inkscape:object-nodes="true"
     inkscape:snap-smooth-nodes="true"
     inkscape:snap-midpoints="true"
     inkscape:snap-others="true"
     inkscape:snap-object-midpoints="true"
     inkscape:snap-center="true"
     inkscape:snap-bbox="true"
     inkscape:bbox-paths="true"
     inkscape:bbox-nodes="true"
     inkscape:snap-bbox-edge-midpoints="true"
     inkscape:snap-bbox-midpoints="true"
     inkscape:snap-global="true"
     showguides="true"
     inkscape:guide-bbox="true"
     inkscape:zoom="7.2265625"
     inkscape:cx="64"
     inkscape:cy="64"
     inkscape:window-x="0"
     inkscape:window-y="0"
     inkscape:window-maximized="0"
     inkscape:current-layer="svg2"
     inkscape:showpageshadow="false"
     borderlayer="true">
    <inkscape:grid
       type="xygrid"
       id="grid3338"
       empspacing="4" />
    <sodipodi:guide
       position="4,4"
       orientation="0,1"
       id="guide3348" />
    <sodipodi:guide
       position="4,124"
       orientation="0,1"
       id="guide3350" />
    <sodipodi:guide
       position="4,128"
       orientation="1,0"
       id="guide3352" />
    <sodipodi:guide
       position="124,128"
       orientation="1,0"
       id="guide3354" />
    <sodipodi:guide
       position="0,8"
       orientation="0,1"
       id="guide3356" />
    <sodipodi:guide
       position="8,128"
       orientation="1,0"
       id="guide3358" />
    <sodipodi:guide
       position="120,128"
       orientation="1,0"
       id="guide3360" />
    <sodipodi:guide
       position="64,128"
       orientation="1,0"
       id="guide4231" />
  </sodipodi:namedview>
  <path
     sodipodi:type="star"
     style="opacity:1;fill:url(#linearGradient4278);fill-opacity:1;fill-rule:evenodd;stroke:none;stroke-width:2;stroke-linejoin:round;stroke-miterlimit:4;stroke-dasharray:none"
     id="path4223"
     sodipodi:sides="8"
     sodipodi:cx="-20"
     sodipodi:cy="28"
     sodipodi:r1="60"
     sodipodi:r2="55.43277"
     sodipodi:arg1="-1.5707963"
     sodipodi:arg2="-1.1780972"
     inkscape:flatsided="true"
     inkscape:rounded="0"
     inkscape:randomized="0"
     d="M -19.999998,-32 22.426408,-14.426406 40,28.000002 22.426406,70.426408 -20.000002,88 -62.426408,70.426406 -80,27.999998 -62.426406,-14.426408 Z"
     transform="matrix(0.99999999,-0.41421356,0.41421356,0.99999999,72.40202,27.715729)" />
  <g
     id="g4305"
     transform="translate(2,0)">
    <path
       inkscape:connector-curvature="0"
       style="opacity:0.1;fill:#000000;fill-opacity:1;fill-rule:nonzero;stroke:none"
       d="m 66.589288,26.00003 c -1.400473,0 -2.526168,1.125698 -2.526168,2.52617 l 0,32.702834 c -0.07093,0 -0.15512,0 -0.226028,0 -0.607167,0.05318 -1.143426,0.137389 -1.732871,0.243754 -0.190565,0.01773 -0.381139,0.03545 -0.553982,0.07092 l 0,-30.504621 c 0,-1.400475 -1.107972,-2.508445 -2.508436,-2.508445 l -2.508448,0 c -1.400476,0 -2.508444,1.10797 -2.508444,2.508445 l 0,33.411933 c -0.624899,0.398869 -1.227629,0.881945 -1.799347,1.333996 -0.08863,0.08864 -0.22602,0.155116 -0.327958,0.243753 -0.08863,0.101934 -0.261481,0.190571 -0.38114,0.310232 l 0,-22.731106 c 0,-1.387178 -1.125698,-2.508444 -2.495146,-2.508444 l -2.526174,0 C 45.107968,41.099451 44,42.225148 44,43.607895 c 0,0 0.08864,40.405439 0.08864,40.511803 0.155111,2.215939 0.655918,4.329946 1.400469,6.2844 0.780016,1.972186 1.817074,3.722779 3.049133,5.34928 0.0177,0.03546 0.08864,0.03546 0.101939,0.07084 0.398869,0.518546 0.881938,1.006047 1.333989,1.489121 0.452056,0.500788 0.917405,0.988297 1.418205,1.418195 0.0177,0.01769 0.05319,-0.01769 0.07091,0 0.5008,0.452056 0.97058,0.881936 1.489108,1.263075 0.0177,0.01769 0.07091,-0.01769 0.08864,0 0.536259,0.363431 1.072518,0.762291 1.644227,1.090251 0.03549,0.0177 0.05319,0.0708 0.08864,0.0886 1.019328,0.57172 2.096277,1.00603 3.221975,1.40048 0.172851,0.0708 0.292509,0.17284 0.465351,0.24375 0.01769,0.0177 0.05324,-0.0177 0.07093,0 0.642621,0.22602 1.316269,0.46534 1.972186,0.62488 0.03546,0 0.03546,0 0.07093,0 0.655917,0.15512 1.298537,0.22603 1.972186,0.31025 0.709093,0.10193 1.435926,0.22601 2.198214,0.24375 0.69137,0.0177 1.400463,-0.0355 2.114001,-0.0886 0.673639,-0.0356 1.298537,-0.11966 1.972186,-0.22602 0.673639,-0.10194 1.298537,-0.22604 1.954454,-0.39888 0.119667,-0.0355 0.261482,-0.0532 0.398871,-0.0708 0.500806,-0.15511 1.006037,-0.38114 1.489112,-0.55398 0.465352,-0.17284 0.952852,-0.34569 1.400472,-0.55399 0.137389,-0.0532 0.279213,-0.0886 0.398871,-0.15511 0.226028,-0.10194 0.416602,-0.2083 0.624898,-0.31023 0.434325,-0.22603 0.846491,-0.45205 1.263084,-0.70911 1.006038,-0.58944 1.941159,-1.280813 2.823112,-2.043091 0.500797,-0.416593 0.970575,-0.864213 1.418196,-1.333982 0.434324,-0.452056 0.864222,-0.9174 1.245361,-1.418214 0.398862,-0.465343 0.762278,-0.988297 1.107964,-1.489103 1.072519,-1.560019 1.954463,-3.23527 2.597084,-5.021317 0,-0.05315 0.05324,-0.101935 0.07093,-0.155111 0.607167,-1.781618 0.988306,-3.651871 1.107963,-5.575306 0,-0.03545 2.5439,-12.62199 10.060366,-26.418429 0,-2.508443 -2.508437,-2.508443 -2.508437,-2.508443 l -5.021317,2.508443 c -1.280815,0.64263 -2.526177,2.508451 -2.526177,2.508451 l -5.021317,8.810574 0,-32.702833 c 0,-1.400474 -1.107972,-2.508443 -2.508436,-2.508443 l -2.495158,0 c -1.400464,0 -2.508446,1.107969 -2.508446,2.508443 l 0,27.043325 c -0.797732,-0.363417 -1.661954,-0.673649 -2.508445,-0.952857 l 0,-33.655688 c 0,-1.387177 -1.125695,-2.508443 -2.508437,-2.508443 m -2.526176,-0.01773"
       id="path4284" />
    <path
       id="path57"
       d="m 62.589288,26.00003 c -1.400473,0 -2.526168,1.125698 -2.526168,2.52617 l 0,32.702834 c -0.07093,0 -0.15512,0 -0.226028,0 -0.607167,0.05318 -1.143426,0.137389 -1.732871,0.243754 -0.190565,0.01773 -0.381139,0.03545 -0.553982,0.07092 l 0,-30.504621 c 0,-1.400475 -1.107972,-2.508445 -2.508436,-2.508445 l -2.508448,0 c -1.400476,0 -2.508444,1.10797 -2.508444,2.508445 l 0,33.411933 c -0.624899,0.398869 -1.227629,0.881945 -1.799347,1.333996 -0.08863,0.08864 -0.22602,0.155116 -0.327958,0.243753 -0.08863,0.101934 -0.261481,0.190571 -0.38114,0.310232 l 0,-22.731106 c 0,-1.387178 -1.125698,-2.508444 -2.495146,-2.508444 l -2.526174,0 C 41.107968,41.099451 40,42.225148 40,43.607895 c 0,0 0.08864,40.405439 0.08864,40.511803 0.155111,2.215939 0.655918,4.329946 1.400469,6.2844 0.780016,1.972186 1.817074,3.722779 3.049133,5.34928 0.0177,0.03546 0.08864,0.03546 0.101939,0.07084 0.398869,0.518546 0.881938,1.006047 1.333989,1.489121 0.452056,0.500788 0.917405,0.988297 1.418205,1.418195 0.0177,0.01769 0.05319,-0.01769 0.07091,0 0.5008,0.452056 0.97058,0.881936 1.489108,1.263075 0.0177,0.01769 0.07091,-0.01769 0.08864,0 0.536259,0.363431 1.072518,0.762291 1.644227,1.090251 0.03549,0.0177 0.05319,0.0708 0.08864,0.0886 1.019328,0.57172 2.096277,1.00603 3.221975,1.40048 0.172851,0.0708 0.292509,0.17284 0.465351,0.24375 0.01769,0.0177 0.05324,-0.0177 0.07093,0 0.642621,0.22602 1.316269,0.46534 1.972186,0.62488 0.03546,0 0.03546,0 0.07093,0 0.655917,0.15512 1.298537,0.22603 1.972186,0.31025 0.709093,0.10193 1.435926,0.22601 2.198214,0.24375 0.69137,0.0177 1.400463,-0.0355 2.114001,-0.0886 0.673639,-0.0356 1.298537,-0.11966 1.972186,-0.22602 0.673639,-0.10194 1.298537,-0.22604 1.954454,-0.39888 0.119667,-0.0355 0.261482,-0.0532 0.398871,-0.0708 0.500806,-0.15511 1.006037,-0.38114 1.489112,-0.55398 0.465352,-0.17284 0.952852,-0.34569 1.400472,-0.55399 0.137389,-0.0532 0.279213,-0.0886 0.398871,-0.15511 0.226028,-0.10194 0.416602,-0.2083 0.624898,-0.31023 0.434325,-0.22603 0.846491,-0.45205 1.263084,-0.70911 1.006038,-0.58944 1.941159,-1.280813 2.823112,-2.043091 0.500797,-0.416593 0.970575,-0.864213 1.418196,-1.333982 0.434324,-0.452056 0.864222,-0.9174 1.245361,-1.418214 0.398862,-0.465343 0.762278,-0.988297 1.107964,-1.489103 1.072519,-1.560019 1.954463,-3.23527 2.597084,-5.021317 0,-0.05315 0.05324,-0.101935 0.07093,-0.155111 0.607167,-1.781618 0.988306,-3.651871 1.107963,-5.575306 0,-0.03545 2.5439,-12.62199 10.060366,-26.418429 0,-2.508443 -2.508437,-2.508443 -2.508437,-2.508443 l -5.021317,2.508443 c -1.280815,0.64263 -2.526177,2.508451 -2.526177,2.508451 l -5.021317,8.810574 0,-32.702833 c 0,-1.400474 -1.107972,-2.508443 -2.508436,-2.508443 l -2.495158,0 c -1.400464,0 -2.508446,1.107969 -2.508446,2.508443 l 0,27.043325 c -0.797732,-0.363417 -1.661954,-0.673649 -2.508445,-0.952857 l 0,-33.655688 c 0,-1.387177 -1.125695,-2.508443 -2.508437,-2.508443 m -2.526176,-0.01773"
       style="fill:#ffffff;fill-opacity:1;fill-rule:nonzero;stroke:none"
       inkscape:connector-curvature="0" />
  </g>
  <g
     id="g4309">
    <path
       inkscape:connector-curvature="0"
       style="opacity:0.1;fill:#000000;fill-opacity:1;fill-rule:evenodd;stroke:none;stroke-width:2;stroke-linejoin:round;stroke-miterlimit:4;stroke-dasharray:none"
       d="M 44.804688,8 12,40.804688 12,87.195312 44.804688,120 91.195312,120 124,87.195312 124,40.804688 91.195312,8 44.804688,8 Z m 3.3125,8 39.765624,0 L 116,44.117188 116,83.882812 87.882812,112 48.117188,112 20,83.882812 20,44.117188 48.117188,16 Z"
       id="path4282" />
    <path
       id="path4267"
       d="M 40.804688 8 L 8 40.804688 L 8 87.195312 L 40.804688 120 L 87.195312 120 L 120 87.195312 L 120 40.804688 L 87.195312 8 L 40.804688 8 z M 44.117188 16 L 83.882812 16 L 112 44.117188 L 112 83.882812 L 83.882812 112 L 44.117188 112 L 16 83.882812 L 16 44.117188 L 44.117188 16 z "
       style="opacity:1;fill:#ffffff;fill-opacity:1;fill-rule:evenodd;stroke:none;stroke-width:2;stroke-linejoin:round;stroke-miterlimit:4;stroke-dasharray:none" />
  </g>
</svg>
